<svg width="132" height="132" viewBox="0 0 132 132" fill="none" xmlns="http://www.w3.org/2000/svg">
<path d="M66 70.75C77.8008 70.75 87.375 61.1758 87.375 49.375C87.375 37.5742 77.8008 28 66 28C54.1992 28 44.625 37.5742 44.625 49.375C44.625 61.1758 54.1992 70.75 66 70.75ZM85 75.5H76.8211C73.5258 77.0141 69.8594 77.875 66 77.875C62.1406 77.875 58.4891 77.0141 55.1789 75.5H47C36.5055 75.5 28 84.0055 28 94.5V96.875C28 100.809 31.1914 104 35.125 104H96.875C100.809 104 104 100.809 104 96.875V94.5C104 84.0055 95.4945 75.5 85 75.5Z" fill="#791377" fill-opacity="0.25"/>
<circle cx="66" cy="66" r="66" fill="#D9D9D9" fill-opacity="0.5"/>
<circle cx="66" cy="66" r="65.5" stroke="#791377" stroke-opacity="0.25"/>
</svg>
