<svg width="48" height="48" viewBox="0 0 48 48" fill="none" xmlns="http://www.w3.org/2000/svg">
<rect width="48" height="48" rx="24" fill="#F6EEED"/>
<path d="M34 24C34 18.49 29.51 14 24 14C18.49 14 14 18.49 14 24C14 26.9 15.25 29.51 17.23 31.34C17.23 31.35 17.23 31.35 17.22 31.36C17.32 31.46 17.44 31.54 17.54 31.63C17.6 31.68 17.65 31.73 17.71 31.77C17.89 31.92 18.09 32.06 18.28 32.2C18.35 32.25 18.41 32.29 18.48 32.34C18.67 32.47 18.87 32.59 19.08 32.7C19.15 32.74 19.23 32.79 19.3 32.83C19.5 32.94 19.71 33.04 19.93 33.13C20.01 33.17 20.09 33.21 20.17 33.24C20.39 33.33 20.61 33.41 20.83 33.48C20.91 33.51 20.99 33.54 21.07 33.56C21.31 33.63 21.55 33.69 21.79 33.75C21.86 33.77 21.93 33.79 22.01 33.8C22.29 33.86 22.57 33.9 22.86 33.93C22.9 33.93 22.94 33.94 22.98 33.95C23.32 33.98 23.66 34 24 34C24.34 34 24.68 33.98 25.01 33.95C25.05 33.95 25.09 33.94 25.13 33.93C25.42 33.9 25.7 33.86 25.98 33.8C26.05 33.79 26.12 33.76 26.2 33.75C26.44 33.69 26.69 33.64 26.92 33.56C27 33.53 27.08 33.5 27.16 33.48C27.38 33.4 27.61 33.33 27.82 33.24C27.9 33.21 27.98 33.17 28.06 33.13C28.27 33.04 28.48 32.94 28.69 32.83C28.77 32.79 28.84 32.74 28.91 32.7C29.11 32.58 29.31 32.47 29.51 32.34C29.58 32.3 29.64 32.25 29.71 32.2C29.91 32.06 30.1 31.92 30.28 31.77C30.34 31.72 30.39 31.67 30.45 31.63C30.56 31.54 30.67 31.45 30.77 31.36C30.77 31.35 30.77 31.35 30.76 31.34C32.75 29.51 34 26.9 34 24ZM28.94 28.97C26.23 27.15 21.79 27.15 19.06 28.97C18.62 29.26 18.26 29.6 17.96 29.97C16.44 28.43 15.5 26.32 15.5 24C15.5 19.31 19.31 15.5 24 15.5C28.69 15.5 32.5 19.31 32.5 24C32.5 26.32 31.56 28.43 30.04 29.97C29.75 29.6 29.38 29.26 28.94 28.97Z" fill="#8D5245"/>
<path d="M24 18.9299C21.93 18.9299 20.25 20.6099 20.25 22.6799C20.25 24.7099 21.84 26.3599 23.95 26.4199C23.98 26.4199 24.02 26.4199 24.04 26.4199C24.06 26.4199 24.09 26.4199 24.11 26.4199C24.12 26.4199 24.13 26.4199 24.13 26.4199C26.15 26.3499 27.74 24.7099 27.75 22.6799C27.75 20.6099 26.07 18.9299 24 18.9299Z" fill="#8D5245"/>
</svg>
