<svg width="16" height="16" viewBox="0 0 16 16" fill="none" xmlns="http://www.w3.org/2000/svg">
<path d="M7.2865 15.1677C6.9665 15.1677 6.64652 15.0877 6.35319 14.9277C5.75986 14.5943 5.40649 14.001 5.40649 13.3277V9.76101C5.40649 9.42101 5.18648 8.92099 4.97982 8.66099L2.44649 6.001C2.02649 5.581 1.69983 4.84766 1.69983 4.30766V2.76101C1.69983 1.68767 2.51318 0.847656 3.54651 0.847656H12.4398C13.4598 0.847656 14.2865 1.67434 14.2865 2.69434V4.17434C14.2865 4.87434 13.8665 5.68099 13.4665 6.07432C13.2732 6.26765 12.9532 6.26765 12.7598 6.07432C12.5665 5.88099 12.5665 5.56099 12.7598 5.36766C13.0065 5.12099 13.2865 4.56767 13.2865 4.17434V2.69434C13.2865 2.22767 12.9065 1.84766 12.4398 1.84766H3.54651C3.07318 1.84766 2.69983 2.24767 2.69983 2.76101V4.30766C2.69983 4.55432 2.89983 5.04101 3.15983 5.30101L5.72652 8.001C6.06652 8.421 6.39982 9.12767 6.39982 9.76101V13.3277C6.39982 13.7677 6.69984 13.981 6.83317 14.0543C7.11984 14.2143 7.45986 14.2077 7.72652 14.0477L8.65983 13.4477C8.85316 13.3343 9.03984 12.9677 9.03984 12.721C9.03984 12.4477 9.2665 12.221 9.53984 12.221C9.81317 12.221 10.0398 12.4477 10.0398 12.721C10.0398 13.321 9.66649 14.0077 9.19316 14.2943L8.26652 14.8943C7.96652 15.0743 7.6265 15.1677 7.2865 15.1677Z" fill="#4C4C4C"/>
<path d="M10.7134 11.5128C9.26009 11.5128 8.08008 10.3328 8.08008 8.87944C8.08008 7.4261 9.26009 6.24609 10.7134 6.24609C12.1668 6.24609 13.3468 7.4261 13.3468 8.87944C13.3468 10.3328 12.1668 11.5128 10.7134 11.5128ZM10.7134 7.24609C9.81342 7.24609 9.08008 7.97944 9.08008 8.87944C9.08008 9.77943 9.81342 10.5128 10.7134 10.5128C11.6134 10.5128 12.3468 9.77943 12.3468 8.87944C12.3468 7.97944 11.6134 7.24609 10.7134 7.24609Z" fill="#4C4C4C"/>
<path d="M13.2466 11.913C13.12 11.913 12.9933 11.8664 12.8933 11.7664L12.2267 11.0997C12.0333 10.9064 12.0333 10.5864 12.2267 10.393C12.42 10.1997 12.74 10.1997 12.9333 10.393L13.6 11.0597C13.7933 11.253 13.7933 11.573 13.6 11.7664C13.5067 11.8597 13.3733 11.913 13.2466 11.913Z" fill="#4C4C4C"/>
</svg>
